<svg width="18" height="18" viewBox="0 0 18 18" fill="none" xmlns="http://www.w3.org/2000/svg">
<g clip-path="url(#clip0_894_859)">
<path d="M9 18C13.9706 18 18 13.9706 18 9C18 4.02944 13.9706 0 9 0C4.02944 0 0 4.02944 0 9C0 13.9706 4.02944 18 9 18Z" fill="#E21B1B"/>
<path d="M17.9396 10.0305L12.9345 5.02539L5.28223 12.9592L10.2367 17.9137C14.2859 17.3568 17.4747 14.1081 17.9396 10.0305Z" fill="#C40606"/>
<path d="M12.4589 13.0613C12.2789 13.0613 12.0991 12.9927 11.9616 12.8554L5.14749 6.04102C4.87271 5.76624 4.87271 5.3213 5.14749 5.0468C5.42227 4.7723 5.86721 4.77202 6.14171 5.0468L12.9561 11.8612C13.2309 12.136 13.2309 12.5809 12.9561 12.8554C12.8186 12.9927 12.6389 13.0613 12.4589 13.0613Z" fill="white"/>
<path d="M5.64377 13.0614C5.46377 13.0614 5.28405 12.9928 5.14652 12.8555C4.87173 12.5807 4.87173 12.1358 5.14652 11.8613L11.9609 5.04691C12.2357 4.77213 12.6806 4.77213 12.9551 5.04691C13.2296 5.32169 13.2299 5.76663 12.9551 6.04113L6.14102 12.8555C6.00377 12.9928 5.82377 13.0614 5.64377 13.0614Z" fill="white"/>
</g>
<defs>
<clipPath id="clip0_894_859">
<rect width="18" height="18" fill="white"/>
</clipPath>
</defs>
</svg>
