<svg width="104" height="84" viewBox="0 0 104 84" fill="none" xmlns="http://www.w3.org/2000/svg">
<path d="M85.8 0H18.2C13.3731 0 8.74382 1.9175 5.33066 5.33066C1.91749 8.74382 0 13.3731 0 18.2V65C0 69.8269 1.91749 74.4562 5.33066 77.8694C8.74382 81.2825 13.3731 83.2 18.2 83.2H85.8C90.6269 83.2 95.2562 81.2825 98.6693 77.8694C102.083 74.4562 104 69.8269 104 65V18.2C104 13.3731 102.083 8.74382 98.6693 5.33066C95.2562 1.9175 90.6269 0 85.8 0ZM5.2 18.2C5.2 14.7522 6.56964 11.4456 9.00761 9.00761C11.4456 6.56964 14.7522 5.2 18.2 5.2H85.8C89.2478 5.2 92.5544 6.56964 94.9924 9.00761C97.4304 11.4456 98.8 14.7522 98.8 18.2V61.386L74.646 37.154C74.4031 36.913 74.1149 36.7224 73.7982 36.593C73.4814 36.4636 73.1422 36.398 72.8 36.4C72.4578 36.398 72.1186 36.4636 71.8018 36.593C71.4851 36.7224 71.1969 36.913 70.954 37.154L44.2 63.934L27.846 47.554C27.6043 47.3103 27.3167 47.1169 26.9999 46.9849C26.6831 46.8529 26.3432 46.7849 26 46.7849C25.6568 46.7849 25.3169 46.8529 25.0001 46.9849C24.6833 47.1169 24.3957 47.3103 24.154 47.554L5.33 66.378C5.26094 65.9215 5.21754 65.4614 5.2 65V18.2ZM85.8 78H18.2C15.9971 77.9929 13.8321 77.426 11.9084 76.3527C9.9846 75.2794 8.36513 73.7348 7.202 71.864L26 53.066L42.354 69.446C42.5957 69.6897 42.8833 69.8831 43.2001 70.0151C43.5169 70.1471 43.8568 70.2151 44.2 70.2151C44.5432 70.2151 44.8831 70.1471 45.1999 70.0151C45.5167 69.8831 45.8043 69.6897 46.046 69.446L72.8 42.692L98.332 68.276C97.609 71.0526 95.9877 73.512 93.7209 75.2709C91.4541 77.0297 88.6691 77.9893 85.8 78Z" fill="#5D6661"/>
</svg>
